<?xml version="1.0" encoding="utf-8"?>
<!-- Generator: Adobe Illustrator 19.2.1, SVG Export Plug-In . SVG Version: 6.00 Build 0)  -->
<svg version="1.1" id="layer" xmlns="http://www.w3.org/2000/svg" xmlns:xlink="http://www.w3.org/1999/xlink" x="0px" y="0px"
	 viewBox="0 0 652 652" style="enable-background:new 0 0 652 652;" xml:space="preserve">
<path d="M161.6,322.1h-61.4v19.5h38.1c-0.1,5.7-1,11.4-2.9,16.8c-1.6,4.8-4.3,9.2-7.9,12.8c-3.6,3.6-8,6.3-12.8,8.1
	c-5.6,1.9-11.5,2.8-17.4,2.6c-7.8,0-14.5-1.6-20.2-4.7c-5.6-3-10.3-7.4-13.8-12.6c-3.7-5.5-6.3-11.6-7.9-18c-3.4-13.5-3.4-27.5,0-41
	c1.6-6.4,4.2-12.5,7.9-18c3.5-5.3,8.3-9.6,13.9-12.6c5.7-3.1,12.4-4.7,20.2-4.7c4.5,0,9,0.6,13.3,1.9c4.1,1.2,8,3,11.5,5.5
	c7.2,5.1,11.9,13,12.9,21.7h25c-0.8-7.7-3.1-15.1-7-21.7c-3.6-6.1-8.3-11.5-14-15.7c-5.8-4.3-12.3-7.5-19.2-9.5
	c-7.4-2.1-15-3.2-22.7-3.2c-10.9,0-20.8,2.1-29.4,6.2c-8.5,3.9-16,9.6-22.1,16.6c-6.1,7.2-10.8,15.5-13.8,24.4
	C28.6,306,26.9,316,27,326c-0.1,10.1,1.6,20.2,4.8,29.7c3,8.9,7.7,17.2,13.8,24.4c6.1,7,13.6,12.7,22.1,16.5c8.7,4,18.5,6,29.4,6
	c8.9,0,16.8-1.5,23.6-4.5c6.8-3,13.7-8.4,20.5-16.2l2.6,17.2h17.7L161.6,322.1L161.6,322.1z M311.5,399.3l-56.4-146.5h-27.3
	l-56.2,146.5H198l13.7-38.8h58.5l13.7,38.8H311.5z M263.5,341h-44.7l22.2-63h0.6L263.5,341L263.5,341z M321.9,399.2h24.4V291.5h0.6
	l66.7,107.7h27.1V252.8h-24.4v107.9h-0.4l-66.9-107.9h-27.1V399.2L321.9,399.2z M461.6,399.2H486V291.5h0.6l66.7,107.7h27.1V252.8
	h-24.4v107.9h-0.4l-66.9-107.9h-27.1V399.2L461.6,399.2z M601.4,399.2H627V252.8h-25.6V399.2L601.4,399.2z"/>
</svg>
